<mxfile host="65bd71144e">
    <diagram id="WXBG2F2hWC30lOynOSNX" name="第 1 页">
        <mxGraphModel dx="411" dy="392" grid="1" gridSize="10" guides="1" tooltips="1" connect="1" arrows="1" fold="1" page="1" pageScale="1" pageWidth="827" pageHeight="1169" math="0" shadow="0">
            <root>
                <mxCell id="0"/>
                <mxCell id="1" parent="0"/>
                <mxCell id="3" value="" style="endArrow=none;html=1;" parent="1" edge="1">
                    <mxGeometry width="50" height="50" relative="1" as="geometry">
                        <mxPoint x="320" y="320" as="sourcePoint"/>
                        <mxPoint x="320" y="120" as="targetPoint"/>
                    </mxGeometry>
                </mxCell>
                <mxCell id="4" value="" style="endArrow=none;html=1;" parent="1" edge="1">
                    <mxGeometry width="50" height="50" relative="1" as="geometry">
                        <mxPoint x="160" y="320" as="sourcePoint"/>
                        <mxPoint x="160" y="120" as="targetPoint"/>
                    </mxGeometry>
                </mxCell>
                <mxCell id="5" value="" style="endArrow=none;html=1;" parent="1" edge="1">
                    <mxGeometry width="50" height="50" relative="1" as="geometry">
                        <mxPoint x="240" y="320" as="sourcePoint"/>
                        <mxPoint x="240" y="120" as="targetPoint"/>
                    </mxGeometry>
                </mxCell>
                <mxCell id="6" value="" style="endArrow=none;html=1;" parent="1" edge="1">
                    <mxGeometry width="50" height="50" relative="1" as="geometry">
                        <mxPoint x="160" y="170" as="sourcePoint"/>
                        <mxPoint x="240" y="170" as="targetPoint"/>
                    </mxGeometry>
                </mxCell>
                <mxCell id="8" value="" style="endArrow=none;html=1;" parent="1" edge="1">
                    <mxGeometry width="50" height="50" relative="1" as="geometry">
                        <mxPoint x="240" y="220" as="sourcePoint"/>
                        <mxPoint x="320" y="220" as="targetPoint"/>
                    </mxGeometry>
                </mxCell>
                <mxCell id="9" value="" style="endArrow=none;html=1;" parent="1" edge="1">
                    <mxGeometry width="50" height="50" relative="1" as="geometry">
                        <mxPoint x="160" y="270" as="sourcePoint"/>
                        <mxPoint x="240" y="270" as="targetPoint"/>
                    </mxGeometry>
                </mxCell>
                <mxCell id="10" value="" style="shape=stencil(fZTbcoMwDES/htcdXyTLfk7T/8hMSMM0DRlCb39fMzRtbILejNiD0Xqtxm+ux92lbZy5jkP/2n52+/HY+KfGue58bIduzKvGbxu/OfRD+zL07+f9/HzZTcpp9dZ/TF/4mjlrDIyZMGe+59Jf4XkGTt35DoiCGAs9IURFbxFdobcWya8DEhAqIMKwAnDdQW4hWAUwIC4BvjX1EAiMZAvAW7AGWPhQAgGR1gEOtUtkEUQBCFz2QKw2zQ5OSiCBwzpAAvEFwB6s7EAetkwGC0jZwUcEKoDsGynZyyZWtga6ncxjgGBSCUSQWwdcqm2V/EtJARbhE1JtdYvwiSAo9yGnv7I1Gojikl2kNRKc4pJdpDVfclFcCjClPpnbST5ORm1qIoiiX4ykuyn1C+TF/0g7dKfTPBHv39cjMJfm8em3Pw==);fillColor=none;" parent="1" vertex="1">
                    <mxGeometry x="154.81007385253906" y="81.4150390625" width="5.27996826171875" height="27.360000610351562" as="geometry"/>
                </mxCell>
                <mxCell id="11" value="" style="shape=stencil(lZdJctswEEVPw+0vzECvbecerrIcsSxLLlmZbp9mMVQEgGq6dxz+A9AzOfiHz/3zx25w5vNyPr3tfo0vl/3gHwfnxuN+dx4vfDX4p8E/vJ7Ou+/n04/jy3z/8Twpp6v3089phd8zZ2DMBDnzp3nwbZYfxuONPCAVhdwaRK/RR5ig0WdYq9A7i0AafUTR2OsNXNLoA1x9fgtDgr4g1eFyyE4Il0Os/RlQhPVDgomVPiNZQU+wrj6/Qcn3gWiR6w0sp5QEeFADEKIExDYEHMR/TlgHEmztI44iFRWQEAQv9UCwKFEFZDjVkaKcGCtAgZWOFJHrzEucW0JqR860OjVSgpeALtLZLNW9DjjYupgzLyEBXbPL3D+EXGKv+1wDJNdPWExcgOLkAjLItQ0lwnuhA1wT4QqUpWeuAx65toG4SQmp4agNHMnZ6jiuDeBAgg3ctErd9SjACEfiks91tlJEEo5k09JUrkBallgHfNtYSa64frIxUASjM0LdlqgsyXVn0npq9VJyd8VAtOy4qjftZLNGnlVd8WwDIaiAzoQtoOtJW4Dl+a8kCkI74Tas6Mphi/BxGfpfJYJHSTpXcR/yKiLxFNTtkdS+ygFRt0fpvrA2CbV3C7VfoVvE1PB01cT9KOhOdfP+PsIX/7/0X8fDYf5RuH3f/hnwo/mvwj/9BQ==);fillColor=none;" parent="1" vertex="1">
                    <mxGeometry x="234.0100555419922" y="86.21502685546875" width="27.360000610351562" height="22.079986572265625" as="geometry"/>
                </mxCell>
                <mxCell id="12" value="" style="shape=stencil(rVfZbuMwDPwavxK6KJHPPf6jQNONsdmkSNPu9u+rwEAbieloDfTNsWdiHsOhNcWbl+3D82YK7uV0PPze/J0fT9sp3k4hzPvt5jif6tUU76Z483Q4bn4dD6/7x+X388MZeb76c3g7/8O/hefIuTMpuPfuxv0C3837C7iSyAq4z8S6Ah8CSV6DZ9K4Ah/DuniiUlgTT7oSTwrf49mTcIP3FBjgC5W2/oGcfI/PkUrb3kgxAryQtPVhmG9J5EqDLzCeIsShwSsxwIun1ObrAykoqNTHbcOqBFFFxVRo0GL7hlrTgt5gcqhFYlRUI7qIVVGYuCMkWNbiKLZtiwWWNSdKqSEkRwKExKbRCSuPzWQmLL2UKbc5fN25TjBWl3DS8TPiT4LATgch305zwvKu0+W7cRv4nVHrjxNWh2SSHhCsB48IRksDQjJqHRGUcuwJ0LcTie8JaB6yo9KFhGc6m03C2OrtTDP2pWJzYJi09SXGA2S9NeOkxWgpYyNTsz/rBkM2o3ZhBWjGmim2ORRsM2rUKlhL3hljEpz1NQbuhJrvBsVBqRGHDurkyXcEnIQY/9bBpjZ7VAd71KxFxeKwXz+KDT8HCt3njJIH4mCjJsUbgs1UXzT/P81vxLD+OmQYCx8xgun2kGEcc8TwRrOWUS++TkJP8263HKQun/cnp3prOXXFuw8=);fillColor=none;" parent="1" vertex="1">
                    <mxGeometry x="310.81004333496094" y="77.57501220703125" width="16.20001220703125" height="28.800018310546875" as="geometry"/>
                </mxCell>
                <mxCell id="13" value="" style="shape=stencil(fZTdbsIwDIWfprdHsZ3fa8beA4kyqjGKStnP2y9VJ4Zb4TvXOV8S+6RuZHM97i5tw+46Dv17+9Xtx2MjLw1zdz62QzfWqJFtI5tDP7RvQ3877+fvy25STtFH/znt8D1z5BycmzB2P3PqnnidgVN3fgByQtB6BhVDz0t9QDH2TxGpKD0R2BtAWBZAgiLPgZiRggYKOBrAqoRag6fnQEjIpAAhUDAAAbEGEsToko/ISQFekI0T/N2lO1AQDN+k2uS1bwHJ8IELoj4hEnw2gJVxMUKMKzEti07OfEu0cjrZxlFA1D6k2iUL8HBRAVnA1pXcsq25WmkUXSC65uJAxmPNENF6gTdsi2DdolJ/QH6uX42LhwnyB9Tgf9wcutNpnlaP68vxVFPzaJPtLw==);fillColor=none;" parent="1" vertex="1">
                    <mxGeometry x="328.09007263183594" y="335.8150329589844" width="7.67999267578125" height="29.279998779296875" as="geometry"/>
                </mxCell>
                <mxCell id="14" value="" style="shape=stencil(lVfZctswDPwavWLAAwT4nKb/kZk4tadunHGcHn9fuBpNTNJa128SuUvhWIDQlB7et09vmyny++l4+L75tXs+baf0ZYpx97rdHHcnf5rS45QeXg7Hzbfj4eP1eX5/ezojz08/Dj/PJ/yeeUzMZ1LkP/NCCBTCv5WvM36/e0V4pSjr8ES5hQspr8MraergnNfhIZJqg8+UgDVBSaTBR6rAHN+29vxANQG8kcYOn1F0Mkl7PlNVgK9ktcNnW8fnTMU6PAN/s1HNd+AlUejtQfaLLuH4jH+O6/jiWrwnv8W3S4MvpAXglbjNV6WC8JVCa39IJEAQyqRtQF2CBiKkgSy0EXKNg3rUSKn9glekgJoZCclVDoI6mpSMCibEVnWuw4xMYortF4SXQrqeBzegzZsU2ChKodwK1aV1p5IKBVBqfp52jTEQg8SJkbROayYDXxCh1DqtSooIbkDrg/FSr9fLX3tpWKQA5J1TnwfLyzf/s4GZLGG4ThAqnUmeStQiPa/WEyowycsltHeOKVTreCmYUQY+hKFrWKUEfAh5iJLHDfgQuI9S5SWV1yuu78OON1Bwg/SqhxldJBRLj1egvPF873qoxQz2J4poUBgDlGCHGVNQ3Sc0Kgw9zAkFuOw+S6u7Ksttd13ZvLTpCwLqw6n0t2f1FRClzEulXBAKiFKW/nqrXk1oYODBab+t7mp61YhBlAov4+sFQXCn7zNdiUHT8yGgG6qcICBK3tdzN0Uynqt0nCNvMLxRV7uP4YN7uovhNdxdojcZgz5uMS721yn+8Pk787Lb7+e/ocv9/vfHl+Zfp/T4Fw==);fillColor=none;" parent="1" vertex="1">
                    <mxGeometry x="230.17005920410156" y="338.8150405883789" width="22.55999755859375" height="24.84001922607422" as="geometry"/>
                </mxCell>
                <mxCell id="15" value="" style="shape=stencil(lZfdchoxDIWfZm/P2JYtW9dp+h6ZCSlMKWQI6c/bV5RZirygZe+WRd/ako4ke6Cnj/XL+2pI4eN42H9f/dq8HtcDfRlS2uzWq8PmqE8DPQ/09LY/rL4d9p+71/Pv95eT5enpx/7n6Qu/z1xklHqiUvhzfhMQwr8XX8/2283uyj5FUFhiL2hpgT01pGjsIxLft88R2X4/jQ7dtq+gbOwzcrxvXwipGHuGiGPfUJqxFwjdt+eESNZfXTE7QEEQC+iOHA+Y0dhGKECckHJF7oDs5oAbgo1Rqm4SFGCbBApobRFAo64eBRjV96EHBNUL6yRKOSF5PhSwVUZW6TlSYgLZUsgM8pwOIJsHVXv1xKrSsMWcG8SpzpLAndMCduStGxAr7+LXvwaRwxKAKlpdBOQxiI8CEVIWAsSLAELMPUBOAVFB6aIUEb0VpC9RBZrTZlSbZNWquRcH0B0325dKRvAALaDOh4JY3HoQWw+qX/bqYTJ7tDtnpwnUjNIlzu/eVZCs0xxHr24CTWNit8R+u2+1n8+nAeBIQ1QI3QoV7IRVdEs20zWgOF1DGNlqqRKKEyXRmW63VPUTng8yzuQRaMGVRgyXArsQ/oC4sUQdJ/GDTkhAdjInpZ+7QgjORJE09t4LUMY1b2tD+n4vFcHRdyv94Uq98jKn+m7daUbco4AqQbgHvAExPTtc5fLRE9MMoW2iP1POEaE/5c4R0345R1DrDxCzxGRMzBGp9T12liBwXUTE1o/4WUKPk8t2JWO7eDgdqMv2NOkfU0Af/t+i3jbb7fkSdv1/f+vSV+cbGz3/BQ==);fillColor=none;" parent="1" vertex="1">
                    <mxGeometry x="139.4500732421875" y="332.9350280761719" width="20.279983520507812" height="32.6400146484375" as="geometry"/>
                </mxCell>
                <mxCell id="16" value="" style="endArrow=none;html=1;" edge="1" parent="1">
                    <mxGeometry width="50" height="50" relative="1" as="geometry">
                        <mxPoint x="120" y="520" as="sourcePoint"/>
                        <mxPoint x="240" y="520" as="targetPoint"/>
                    </mxGeometry>
                </mxCell>
                <mxCell id="17" value="" style="endArrow=none;html=1;" edge="1" parent="1">
                    <mxGeometry width="50" height="50" relative="1" as="geometry">
                        <mxPoint x="120" y="640" as="sourcePoint"/>
                        <mxPoint x="240" y="640" as="targetPoint"/>
                    </mxGeometry>
                </mxCell>
                <mxCell id="18" value="" style="endArrow=none;html=1;" edge="1" parent="1">
                    <mxGeometry width="50" height="50" relative="1" as="geometry">
                        <mxPoint x="120" y="640" as="sourcePoint"/>
                        <mxPoint x="240" y="520" as="targetPoint"/>
                        <Array as="points"/>
                    </mxGeometry>
                </mxCell>
                <mxCell id="19" value="" style="endArrow=none;html=1;" edge="1" parent="1">
                    <mxGeometry width="50" height="50" relative="1" as="geometry">
                        <mxPoint x="200" y="640" as="sourcePoint"/>
                        <mxPoint x="200" y="520" as="targetPoint"/>
                    </mxGeometry>
                </mxCell>
                <mxCell id="22" value="" style="endArrow=none;html=1;" edge="1" parent="1">
                    <mxGeometry width="50" height="50" relative="1" as="geometry">
                        <mxPoint x="160" y="640" as="sourcePoint"/>
                        <mxPoint x="160" y="520" as="targetPoint"/>
                        <Array as="points"/>
                    </mxGeometry>
                </mxCell>
                <mxCell id="23" value="" style="endArrow=none;html=1;" edge="1" parent="1">
                    <mxGeometry width="50" height="50" relative="1" as="geometry">
                        <mxPoint x="240" y="640" as="sourcePoint"/>
                        <mxPoint x="120" y="520" as="targetPoint"/>
                    </mxGeometry>
                </mxCell>
                <mxCell id="25" value="" style="shape=stencil(fZTbcoNACIafZm8ZFvZ4nabvkZmY6tTGjLGnt+/arVs3idwh8Inwg4p31/ZwaRThdRqH1+azO06t4idF1J3bZuymZCneK96dhrF5GYf38zE/Xw5z5my9DR/zG74yFy0YO1OE39mDgPjreM75fXde5Wss8QUwgGYbiASeq3yNEPU2ECI4XQMR0AqAg1hXoFLzMaAhUAUwAgtNe17CBfAQwjbgHJhQD8mAFyo4DewqwGqwtA1YA7bWzXqwwicZf6uDI7EHU2QqQAAtAJwWIVaAl3UgD+RrwIlNJ111PaUkJTphW/2yOQWwy3Y9Bu50SOsYBeEYTD2kyBCFc7i7ntVB/QHJ+L/WU9f3+djX8dvrTq78Z+D9Dw==);fillColor=none;" vertex="1" parent="1">
                    <mxGeometry x="110.6750055948894" y="498.2125244140625" width="5.866673787434896" height="13.200022379557293" as="geometry"/>
                </mxCell>
                <mxCell id="26" value="" style="shape=stencil(lVbLcsIwDPyaXDW2ZTvWmdL/YIZQMk0JE6CPv6/TzLRJBHJ1M/Iu9korxRVuLsfduamcuVyH/rX5aPfXY4VPlXPt6dgM7TWvKtxWuDn0Q/My9LfTfvp93o3IcfXWv4//8DnxXIRYjyxnvqZIBLQ/gecJ37WnGR4tWLvAI5AR8AFCXOAtUHqM9waMWeFtFPAOxr0Z3oj38Uzv74F38YHpLeCZXvk+8Y7eJOE9eL/Kf5TwCRAV9a3tOj8EJOHZfWwAdAKBFSArjhKBKXA1EIqERMsURTBec4IPMoFpCB5M0GQpIhjB1rwMOWJrTZ1HVUKjcSMlD1EiMKdSjpCmFSh7VSKwXqMIXtXMlMBJBO5uAiuNL3aCNfIA4AOyxHB8RJYYfGgUGJa3aYHBmqhEUJ/AalEi6FVrS4Fa0eosWX2xcd3Z/7CgMrP5q6u8lSdtuUO9/lKXGHxElRi1Wkce5UqPJHV2k3qIkNq5pPbVbP8xJS/+Xo6Htuumh+d8f/3SzKHplYrbbw==);fillColor=none;" vertex="1" parent="1">
                    <mxGeometry x="151.47500483194995" y="499.91255696614587" width="18.000011444091797" height="11.099980672200521" as="geometry"/>
                </mxCell>
                <mxCell id="27" value="" style="shape=stencil(pVbLctswDPwaXXdIggTJc5r+R2bi1J66dsZxX39fqKpSk1R2mulNlhcCiV0sMMndy/7heTcF93K9nD/vvh8er/tJPkwhHE773eVwtadJ7ie5ezpfdp8u56+nx+X388OMnJ++nL/NX/ixxPmCFOao4H4ubwSaf7/4uOCPh9MNPjjU2uAd1BN8RvQd3rm38aJIPV4qwVeUFu8h5W18VIhr8GEtwCY+CXKLjygErw6+rU+GkvNoQo7t+T08SZCtHrkNSPCRBAh8agMqMssQ4doMdmchHOe0UvoaUFAJyWMGEUTCcvY9a5KRSAa1v1saogmXVEkDXMtDlFVZ28KIUGkDFJ4caVRezFRKdsX+SFZW1puK0jIdKxK5tNe11/8xoEDkPfiAXN6DN47+7/vJ2o+Qpogd3iMoKVBA1TYgrH62faCA0Nqp6cQLIVn6kqa0srgto4jYqiKZ1okqRqGmikCaTWNvqeqRiIeN7ayyan1bRqEfCmaDjrRCGVzeGlxIQE29S2qlc6rW/g7mOczDvHO961kdMiFiI0VBYGcaLlE8HCFiLFOJdLqVQX0l03FrVt91qOWk820w4uoRSV1ncbYtV4UORGvhzvVqRCA8jB1kAYW4jO0kvi2rMUNdoPRLgwVUUtYwzLdqexAzJlk78iaAzbe0fu4Vn5HJFQZx3+j9T4A9/N0qnw7H47KU3v7fb6H2atlg5f4X);fillColor=none;" vertex="1" parent="1">
                    <mxGeometry x="200.67501831054688" y="497.5725301106771" width="10.799992879231771" height="17.43999735514327" as="geometry"/>
                </mxCell>
                <mxCell id="30" value="" style="shape=stencil(fZNLcsMgDEBPw1YDEghYp+k9MhOnZuLaGcfN5/bFQ9PEJrCThR74gSRoc253p0agPE/jcGyuYT+1gj4EYujbZgxTjARtBW0Ow9h8jcNPv0/fp91cOUffw2Xe4ZY4JSVIOWMo7yn1n/hMQBf6OqCBTBnwuK5XGqwrAy4u8wJABF8DFLBdAhaULQPWrH+JDBCVAeb1CVqDxDJg3GO/B2AIkCtA5sASXMVBZw5swVccKHN4XsN7IHvoeNGmIo2Zg2PwFWllwCxfOjaLrfRSpuAZrC7XZwYv3fsHxOA5G4fQdWm0XtfXsxRTaQ5p+ws=);fillColor=none;" vertex="1" parent="1">
                    <mxGeometry x="243.18623299434273" y="646.9621076912715" width="4.965536183324353" height="15.22759799299569" as="geometry"/>
                </mxCell>
                <mxCell id="31" value="" style="shape=stencil(lVZdc8IgEPw1ed0BDjh4tu3/cEatmVp11H79+5JmtALmMrwRshtu7/YudLQ4b5fHdWfU+XI6vK2/+tVl29FTZ0y/365P/SWtOnruaLE5nNavp8PHfjU+H5cDcli9Hz6HL3yPPAWlBpJRP+OG0bD0t/My4nf9/g7v4DnDawsTp/FaI+qccDvyMYHhKSMwtJ3GJwVsM7yHcQLew+eKCY6n8WRgXS4ALAgmBucZUggC3hJULPBSfiwjlN+X8M7A+xY8I4YGvDcw1KDXO0TfkH8fofP8ByjBD6wRCsMRSAiICTY3hI7w0gkVIXlKskQdElkEI2hmuFxzcgkLpvZJYh7SUPYgVDnA5SG5KIZU2ygVUgsnWFf2JSs4Ia0UEIrGd6KT6s4MurH1QwpSC4SqcCHK064qXNRXuz8m2KvEG8GK5ktmLrIUGSQULp1AeeFi6ihBtPaweUhaySMgdbwpZ/wMw0P5JgZRadg5hlXloJllhGoSzDBccqhrYtSdOsfg5uxy5fM5Rnjwl55hpJHXdkbqhEZfxWqEzDHu3k9T0uL/NrTpd7vxMnX/vrw9pa3x5kXPvw==);fillColor=none;" vertex="1" parent="1">
                    <mxGeometry x="154.80003409550113" y="646.3000656654094" width="15.558619005926724" height="9.268967200969827" as="geometry"/>
                </mxCell>
                <mxCell id="32" value="" style="shape=stencil(lZTLcoMwDEW/hq1Gsvxcp+l/ZCakMKUhQ0gff19TShtjEJOdMfdIsq6tgnfX6nApC4XXvmtfy4/62FcFPxVK1eeq7Oo+rgreF7w7tV350rW383H8vhwG5bB6a9+HCJ8jxwqCGyiFX+MOAuLPxvOob+rznV55sCbRE4GzAmCAQgp48EoACHyaIYZQJAAIRqdALNKvA+SAMQE4ZggCoAHTkjRBEEoiBE8p4MHwOuDApC6Y2DazrtfAKtFbAhTiE9iZ3k0+Lur/LsGkdxqU4HJmgcfH6vdWrD+A40QfELR+xOLAwMKdiA7gLIOdalwEOM8gW6yzlxOC2FObmUAoP06btWmLcNkptgifWbdJ5ObJBw/ZTNpobXBAag6gdD0w622MgUJNS4Sesv4ScfE/Zk9104xT+v7/fCzHrXGk8/4b);fillColor=none;" vertex="1" parent="1">
                    <mxGeometry x="119.29657824286096" y="648.9483179552801" width="15.310342722925647" height="11.255177464978448" as="geometry"/>
                </mxCell>
                <mxCell id="33" value="" style="shape=stencil(lZTbboMwDIafJrdWYufgXHfde1QqHWgMKkp3ePsFRXQjFEvcGZMP5/dvrOhwq0/XSqG+jUP/Xn0157FW9KIQm66uhmZMkaKjosOlH6q3ob935/x8PU0np+ij/5y+8J05ozVoPWGof3LqkXjNQNt0MkDgzC4ggMZdgNHgaB+BEHbWCGAEGdEDhwWACBQEgCC4JcCgBYADuKKxFlC4EhvAZQWrgdw2EFwp2nqwcRvwXGpwCF5wwmOpwTGQADgCgwvAp4zfBuzKBy8bl3rilxVCyggArXwIBJ4FwM6D8AD83LenQBqEQnSIwMK4oilFMwILxhlXimYHUWirWRnHEaw0rbOt8/mIEIUmrf63KI/ekx1QLqYU/K21S9O2eSv+f1+uwZTKK5SOvw==);fillColor=none;" vertex="1" parent="1">
                    <mxGeometry x="123.68279608364764" y="653.5828226023707" width="2.648273336476293" height="18.86895541487069" as="geometry"/>
                </mxCell>
                <mxCell id="34" value="" style="shape=stencil(lVbLctswDPwaXTEkQZDEOU3/IzNxak9dO+M4ffx9oWqkGpSyGd9keVcEsMCCAz+87Z9ed0MKb9fL+fvu1+H5uh/4y5DS4bTfXQ5Xexr4ceCHl/Nl9+1yfj89T79fn0bk+PTj/HP8wu+JlxtlHlkp/JneBArh34uvE/54ON3gJVOO9+CVot6BL5k43YMvxLXDZ4CvgZo4fKQUAd7yzQ6fKCeAryTN4TMF/hjfAiUff6EgAJ8oFIc3ASvAc69XtIQVEpo/IGZSkPEGoZHgFMSHZDWNDRAiRV+jJNSQaG2OeCEoVKEWSn4KOM59sk1IlIInZCogh1Ip+SqxdQpqbAvANxIr1EGWxlk6L5JmQAhUfFkzQ+FypuZnIQvF8jHBIs4+6Vyogm61Imo3PY0YdCsnql1ISgWUdU0QbBgWUmg9ATWf6dqVVbDFWNU74YxQEEGJ+R6CtYbedYK5sKxyQIT1PHxGWI2omLMhm5HVCYkaIGig2FUJW7Ey1S4koQLmQUvvfGLag3lQW4Y+h2LNB1wjhmX7LQyLEtTVjhAvtTkPAxfQNjfnTLAVKSgJIfFlqhYSmFE1G/JC2JKEUldq/s4wbkmQw3qj2FIKIIcqc00WgkAhSpuNbiF8Yt8mXJeDznXbnlFbcr6siu0729L0SlsDK2hXZipeh1FKUCXbstGXVbF9x0rZJ611NvTt1uhtRpeNsZ0Cif/+zYBsElbjsybYw//L8cvheJzu1rf/95dpezVdxPnxLw==);fillColor=none;" vertex="1" parent="1">
                    <mxGeometry x="193.01728178879313" y="646.3021076912715" width="18.455168625404095" height="20.524144665948278" as="geometry"/>
                </mxCell>
                <mxCell id="35" value="" style="shape=stencil(lVXbboMwDP0aXq0Qx7Hz3HX/Ual0oHWlou0uf78wVIaz1VXfQjg2PheSClendnNsKu9O56F/bT667bmt8Knyvju0zdCd86rCdYWrXT80L0N/OWyn5+NmRI6rt/597PA51dUMmMYq776mHQfO/Ww8T/h9d1jiAwSNryGygffApPBi93fArPtHCHi7IAGLwueBPN3GM8Ra4+U64b94AnEKjxFEbuMDoOYbyCTsIen+hFB7QyAQPX+8Yxg47VeMpj4OMCo8eyCj//z1Gc938EV/yYysAJV8xZ4fIWm+ydZndnPG39HfXcedCwiiVUCQgi6wFcqUuSiwI5oTXHJOgIamOcJU/MTOVikEIH7kE5RT84eEpWuOMWmjUzSDEQWClEZYHJiA/SNWiy/Pipwly2pJIEW4bavH6BSno81h4dNcUf6fefF72u+6/X66LJbvy9shb003C66/AQ==);fillColor=none;" vertex="1" parent="1">
                    <mxGeometry x="234.0065866615033" y="497.5728007139009" width="22.841375942887932" height="13.24138772898707" as="geometry"/>
                </mxCell>
                <mxCell id="36" value="" style="shape=stencil(lZTdbsMgDIWfhtsjwGDguuveo1LTJVqWVGn29/ZLxNalYY3mO2O+Y5sjZEW7S304V8rqyzj0z9V7cxxrRQ/K2qarq6EZp0jRXtHu1A/V09C/dsd8Ph9mco5e+re5wkfWGa2h9Syz+jOnronHLGibbiFgBocbPsKF+7wr6hsH3mgw1fO3DaaJnNkQ+HUHS9D2vsBY+JXg2vNPQfEEIgSS8AFh48kF78yPyf/kPVgyj0uwG44WvLegKOE9PEv4KPOTDZLET/Zwkvk5QXsBHyx448OVPMMkCZ8QJH5GAkn8jCzzM2mZn4nAEj8TI0rmX2yxb8EU/K68U9O2eWMu79crckrl9Ur7Lw==);fillColor=none;" vertex="1" parent="1">
                    <mxGeometry x="247.49416360789334" y="499.91524228852376" width="0.6620841190732759" height="20.855144632273706" as="geometry"/>
                </mxCell>
                <mxCell id="37" value="" style="endArrow=none;html=1;" edge="1" parent="1">
                    <mxGeometry width="50" height="50" relative="1" as="geometry">
                        <mxPoint x="318.57" y="639.92" as="sourcePoint"/>
                        <mxPoint x="319" y="520" as="targetPoint"/>
                    </mxGeometry>
                </mxCell>
                <mxCell id="38" value="" style="endArrow=none;html=1;" edge="1" parent="1">
                    <mxGeometry width="50" height="50" relative="1" as="geometry">
                        <mxPoint x="359.99999999999994" y="640.69" as="sourcePoint"/>
                        <mxPoint x="360.43" y="520.7699999999999" as="targetPoint"/>
                    </mxGeometry>
                </mxCell>
                <mxCell id="39" value="" style="endArrow=none;html=1;" edge="1" parent="1">
                    <mxGeometry width="50" height="50" relative="1" as="geometry">
                        <mxPoint x="399.99999999999994" y="640.69" as="sourcePoint"/>
                        <mxPoint x="400.43" y="520.7699999999999" as="targetPoint"/>
                    </mxGeometry>
                </mxCell>
                <mxCell id="40" value="" style="endArrow=none;html=1;" edge="1" parent="1">
                    <mxGeometry width="50" height="50" relative="1" as="geometry">
                        <mxPoint x="439.99999999999994" y="640.69" as="sourcePoint"/>
                        <mxPoint x="440.43" y="520.7699999999999" as="targetPoint"/>
                    </mxGeometry>
                </mxCell>
                <mxCell id="42" value="" style="shape=stencil(fZPdbsMgDIWfhlsLsMHhuuveo1LTBS1LqjTb2rcfiP0EMrgz5nwR58QWeLgNp2svtLyty/zaf/rzOgh8Elr7aegXv4ZK4FHg4TIv/csyv0/ndL6eojJWb/NH/MI9cUpKkDJiWj5S67fxnIDRTxugYzC53oFUdT3v9MpCPFYBBYQZoA1QVwcsg3I54ICxDhiGTmUAhg41gF1GZMCZOkAIbDLAaOBGqhhCtBlg5c8j/wd06SHEYLgOhBALD4xgGx5UV3rg8MgWQKWHjoBsA5BAOh+lELRrmAaVT4YjMA397rdtpv0bCMXfalz8OKbN2t6XqxRaaQ3x+AU=);fillColor=none;" vertex="1" parent="1">
                    <mxGeometry x="318.9931282832705" y="494.68625404094826" width="5.296546672952586" height="12.24828259698276" as="geometry"/>
                </mxCell>
                <mxCell id="43" value="" style="shape=stencil(lVXbbsMgDP2avFpgGzDPXfcflZou0bqmSrvb348s6haK6og3AufYx7e4oc2l253bBs3lOg6v7We/v3YNPTWI/alrx/6aTg1tG9ochrF9GYf3037+Pu8m5HR6Gz4mC18zL4DhiYTme74wYMzvxfMMP/anBdwKkK3AowC7Cjx5MFiDj8A1+tkDyx1e6DHeIdg8XgSn2HceKNfjVD2uyE9KsKanwNsVQUWB7YoHBqQ84pUQ/jJ+I5AuiZO9kBFYL0JZZNZjIALJJTmnekhjwD4jeFI9oL3ZuxHCyuB4wFxS0CVZAy6XJHqWGGKuSFYcAOedLRFseIwvyhz1Mpd4vY+KSYsevKKnaOyoN4VlMPnoRz3gadTvRses/I0IrKliMEL0VYz0RxKsYngLMVQxggVLdQwBqfMhHsRVMSID1flYvD+mpMP/cjz0x+O8W5fv98s0Xc2LmLY/);fillColor=none;" vertex="1" parent="1">
                    <mxGeometry x="353.9172815783271" y="497.33454842403023" width="11.751724769329202" height="9.9310302734375" as="geometry"/>
                </mxCell>
                <mxCell id="44" value="" style="shape=stencil(lVbLctswDPwaXXdIgCCJcx7/kZk4taaunXGctP370lWoGpKNaW4SuSuSi12IA9+9bZ9eNwOFt9Px8H3zc3w+bQe+H4jG/XZzHE/taeCHge9eDsfNt+Phff88vb8+nZHnpx+Hj/MXfk28WKDxzKLwexoJCOHvwOOE3437CzxH1PQFfBJwWeAr3cZLRRWDZ4jz/ZwQq8EniN7Gl9V+MjLfxldBsHjtC17FK0GsPpFQskMofXom5C7xVUIMs+Kd0TRVR1OtEFtjErdoKhCyBEXwTh3AdkvMyMWRlZY24gpyCCX1Ms11JrC4xtAFQVyVRED20KlCnUOngmBlFUJwKpciilqCb9amSbDeEN+tXMCLLVVEx32sEBs38f2dGGTzlgPIawAr8+XYhb5eh4S0WMFPUNtAsmdotSdH1rU1cgY7suaKbOvQRqqjUmmBtHkoEepYo01nm4fWqD51+98V/IhmRbKElsHobKlpkmweasugJ2tEtPauBeSs0BKntrdWRXW8JKvOp9HtlWnVjZV7/7+eh9SNMBPaiHNoWv1P1G8zcZ6eCe0X7Ni79tkZ77ellUYXP4xPQnv4dx94GXe76TpxOb+8P7Sh6e7BD38A);fillColor=none;" vertex="1" parent="1">
                    <mxGeometry x="393.1448658910291" y="494.02419096848064" width="11.089677481815734" height="16.220682078394397" as="geometry"/>
                </mxCell>
                <mxCell id="45" value="" style="shape=stencil(lVTbboMwDP2avFqOc3/uuv+oVDrQGFSU7vL3C4u21UEy4s0459jHF6zM4daero0ivM3T+Np8dOe5VeZJEXVD20zdnC1ljsocLuPUvEzjfTiX7+tpQS7W2/i+RPgsPJ3Ax4VF+FU8CIg/jueC77vhER/AWYb34IOAd6B5/BzBGIGgIXLCVoYsmCsyWiQEIMPwFiEKiixEYngnt4jAao5PoAU9OTvyjuYeC/H/sv/igxP1IFiOj3J/VvqjrMcD8v4kOX6eMPGBJbkAHQEDJ8iKyEHgJSd5BMbWW61RHrK1q73eYDhT93WL4QnI7WIEBNqnKgTQ+1RFgmD2MQKkfXXkDXLVxOUBJguep0gRYhIIeYNSTRDvEq7+u1Qfpmz839lL1/flTD++13c5u8pNN8dv);fillColor=none;" vertex="1" parent="1">
                    <mxGeometry x="430.8000582990976" y="494.68625404094826" width="20.606863087621228" height="9.9310302734375" as="geometry"/>
                </mxCell>
                <mxCell id="46" value="" style="shape=stencil(fZTdboMwDIWfhlvLP4lDrrvuPSqVrmisVLT7e/sFsXUYhO9C4i/kHB+5kt3tfLg2FePtPvSvzWd7vJ8reaqY28u5Gdp7WVWyr2R36ofmZejfL8fp+3oYK8fVW/8x3vA1cYQIiCPG+D1tPTaeJ6BrLzOgzhCSqSeI2aknwGjqIyTark8JQrD3I7DzoKQgbAGG6AGrF5GCpm1Ay4uzAYrmIA5AUFsNrECOSTFBbf8gCDk6gPwdPwDf1rhqc0AI9TYQAiSrIUTgsA3IKhjRT5IEYLJABFEHKEFQAyi6okvUFqJVAZ1O8yoaye80JSCrocQxOZ0mAbIaagZybM1Lk2qF7Lgalx5lBnRMZVCx9eoqXuVoNkF+gbL4HzentuumaTU/X46nsjWNNtn/AA==);fillColor=none;" vertex="1" parent="1">
                    <mxGeometry x="437.17247061893863" y="499.3207376414332" width="6.289651804956897" height="13.903450801454742" as="geometry"/>
                </mxCell>
                <mxCell id="47" value="" style="shape=stencil(fdPbDoMgDADQr+G1oa2APO/yH0umk8zp4tzt7ydh2VQCb6X2SIUqeHNrDtdKkLyNQ3+unu44NoK3gsh1TTW4cYoE7wRv6n6oTkN/745hfT34Sh9d+od/wys4lBKk9IzkO6R+iX0ArevywACpNLC0rkcLyGlQSrBqAagEZdLAqPUOzICZlnQECgK2aaAioBB05huKGFgwZRpwBLTJtkQatFleA4PFzMWVwLwA/qAzLSEC4hIY0BkQdWQZikx9NEiz2fqCKfhPbu3aNgz+/Pl60qdU+Et49wE=);fillColor=none;" vertex="1" parent="1">
                    <mxGeometry x="442.46899624528555" y="653.5828226023707" width="4.965588799838362" height="15.227576946390087" as="geometry"/>
                </mxCell>
                <mxCell id="48" value="" style="shape=stencil(lVbZbgIxDPyafbWSOIf9TOl/IAFlVQoI6PX39WpFi00x2rclmSE+xpN0ODttFodVl8LpfNy/rj775XnT4VOXUr/brI79Wb46nHc4W++Pq5fj/n23HH8fFgNy+Hrbfwz/8DXyAoQwkFL4NgvPI3zb767gDVqcAI8JuEzBN6A8AS/bCafgK4Qp8WOExlPwFdjic7qPzxFqUvgIqTj4ArUqPAKig2eIuj4FyMGXANQUnqA58ZQEwcQvKzTlgFj9jBtkLdBHJZWKaMmlDMUJCQmiIfhJYwLUOaCftExNNITiyzRDIk1oUDwCQtR9QHaTlhNICykHVxlSE9Z9yH7SkmKqlsBe46RNejalla74MrAh+J2uBVBXSebJ01IrELUd5Qq13ScQQjIEcgeUGKoua/HlzdI4Q/AtgAmSFl/xc2C+BHAh1AemHW4ukep3TmIyNl99fXOx90iLfhLxUpRfgu98VK1Tkp+1bBufIb8RDe3dQL71SU2COYEvRvL/QMjM67KyXyWxb6M+kZd3gsjf6Jv9ssoFFwyhPbINuiF4toHSJu0zg4Cz42Qy87rTVwK+98qg+IAhH39PrHW/3Y4vtOt9+ySTpfE5h/Mf);fillColor=none;" vertex="1" parent="1">
                    <mxGeometry x="393.80695001010236" y="648.9483179552801" width="14.317248114224139" height="19.862060546875" as="geometry"/>
                </mxCell>
                <mxCell id="49" value="" style="shape=stencil(lVbLctswDPwaXTEkAD5wTtP/yEycWlPXzjhOH39fqDIVg5LRyY2md0kC2IUw0MPb/ul1N2B4u5xP33e/xufLfqAvA+J43O/O40VXAz0O9PByOu++nU/vx+f59+vThJxWP04/pxN+z7wAIUwkDH/mDYwQ6r+drzP+MB5v8AScDD5mQLmPj3ocWQJBdC6IFQpaQgCK9wn6JKyGUEGKE0GAbEPO7YBtfAGxETCwg+cEmG1KITsZSnEVMFBy8AXIvie0mmziM0IKHf5a8218AeRP4Eto4X3gxcMzRO7yc71wG18gSZf/4ODrRn0LOXjVoz3/P4KrCcgGENmtWC0QiiWIKzkldCXTmBE/cwNKy8K9GIo1DTGI9ySCbFVKAuJlaVUG1iw5PtA6R+sbrlCdJxUEjoaQCCg7ys5QO0IB9qwQAS1Bd9jRUkoQbR0yQ3KaEUtvBrVfcdLKqlabVvVfdcS3bl9qQHb8o0IItsVPDvQaZGx+XxpwAPQ68JqAIE7haOm4CyFB9oKWZpeFUJtp7zXtrolJcINWqVX7JCE3aG3DXR0kNdNuyzs2Qy6E3AS/7TiEYg0ktel3kyDYd3qRpq7tb3NYjQs3W1eKLj6GjZfxcJhnldv/++FEt+bBhh7/Ag==);fillColor=none;" vertex="1" parent="1">
                    <mxGeometry x="347.4621140052533" y="646.3828209186422" width="19.19999747440733" height="18.455179148706897" as="geometry"/>
                </mxCell>
                <mxCell id="50" value="" style="shape=stencil(fVTLcoMwDPwarjuy/D6n6X9kJqRhmoYMIX38fU0Z0giCbsbeFdKupMpursfdpa6Yrn3Xvtdfzb4/VvalYm7Ox7pr+nKq7Laym0Pb1W9dezvvx+/LbkAOp4/2c4jwPfKMQ8oDi+lnvCEQ/V28jvhTc37EMwILvEHQ8IRkBD4ihHV8BgUZ3sHGdXwCyfRNRFbi++l1wrOD9+t4i2QF3jKsU+pFJIF3BMPreIKT8V3JX9Hz7s6E9x4ha/lwEvjASIqejDzDZzhFz7Cw18MpehqDLAmJwJqgCVZWnO6ePK9gkVKKk8jPLQ4wURBycUXxzHl4aVrm6Z/Pm86BnCQ4BIUQFjbkAKcQopnPTY7qXMaEKOc4JySFkBaTY0hfFUXFMKu69JJGsPPdUnJijRAR7bxqTaaHlO8Mr1qXF+2Xi9SiOcrhf7semtNpXM6P7/NtXK7GTW63vw==);fillColor=none;" vertex="1" parent="1">
                    <mxGeometry x="307.48969032024513" y="647.6241918103449" width="19.448279019059807" height="13.820674501616379" as="geometry"/>
                </mxCell>
                <mxCell id="51" value="" style="shape=stencil(jZTdboMwDIWfhtujxM6Pue6696hUOtAYVJT9vf2Csq4kLdHuQjif4xM7rnh3aQ/npiJ1mafxtfnsjnNb8VNF1A1tM3VzWFW8r3h3GqfmZRrfh2P8Ph8W5bJ6Gz+WCF+R00pBqQUj9R23/jaeI9B3wwoQgdSJXoP1tt47OJ/oPcRs692dXhuowgGOYFMD2kO7bcAa6PQEYqhCSsajphSoYQopGZ17YAsv2wD73MMtxGOAwZwCIYTdBkLGmWnLMFwAPJSkgFzPfAzYvJEcgwrXSpRfq/NwBQ9a4G3aSlQ0HTrHph68hykBCiZNSTSk0EuSl0EcqFA3C+sSfa0ghYTuHmftrmX5n371vn+BsLgNg1PX93GWrP/nwyNsxcHD+x8=);fillColor=none;" vertex="1" parent="1">
                    <mxGeometry x="317.0069180192619" y="654.2448646282328" width="3.9724205280172415" height="16.882766197467674" as="geometry"/>
                </mxCell>
                <mxCell id="52" value="" style="endArrow=none;html=1;" edge="1" parent="1">
                    <mxGeometry width="50" height="50" relative="1" as="geometry">
                        <mxPoint x="320" y="560" as="sourcePoint"/>
                        <mxPoint x="360" y="560" as="targetPoint"/>
                    </mxGeometry>
                </mxCell>
                <mxCell id="53" value="" style="endArrow=none;html=1;" edge="1" parent="1">
                    <mxGeometry width="50" height="50" relative="1" as="geometry">
                        <mxPoint x="320.98" y="599.9999999999999" as="sourcePoint"/>
                        <mxPoint x="360.98" y="599.9999999999999" as="targetPoint"/>
                    </mxGeometry>
                </mxCell>
                <mxCell id="54" value="" style="endArrow=none;html=1;" edge="1" parent="1">
                    <mxGeometry width="50" height="50" relative="1" as="geometry">
                        <mxPoint x="402" y="560" as="sourcePoint"/>
                        <mxPoint x="442.47" y="559.9999999999999" as="targetPoint"/>
                    </mxGeometry>
                </mxCell>
                <mxCell id="55" value="" style="endArrow=none;html=1;" edge="1" parent="1">
                    <mxGeometry width="50" height="50" relative="1" as="geometry">
                        <mxPoint x="402.47" y="599.9999999999999" as="sourcePoint"/>
                        <mxPoint x="442" y="600" as="targetPoint"/>
                    </mxGeometry>
                </mxCell>
                <mxCell id="56" value="" style="endArrow=none;html=1;" edge="1" parent="1">
                    <mxGeometry width="50" height="50" relative="1" as="geometry">
                        <mxPoint x="360" y="584" as="sourcePoint"/>
                        <mxPoint x="400" y="584" as="targetPoint"/>
                    </mxGeometry>
                </mxCell>
                <mxCell id="58" value="" style="endArrow=classic;html=1;" edge="1" parent="1">
                    <mxGeometry width="50" height="50" relative="1" as="geometry">
                        <mxPoint x="243.19" y="580" as="sourcePoint"/>
                        <mxPoint x="299.18" y="580" as="targetPoint"/>
                    </mxGeometry>
                </mxCell>
            </root>
        </mxGraphModel>
    </diagram>
</mxfile>